<?xml version="1.0" encoding="UTF-8"?>
<svg id="Layer_1" xmlns="http://www.w3.org/2000/svg" version="1.1" viewBox="0 0 896.76 297.69">
  <!-- Generator: Adobe Illustrator 29.1.0, SVG Export Plug-In . SVG Version: 2.1.0 Build 142)  -->
  <defs>
    <style>
      .st0 {
        fill: #fff;
      }
    </style>
  </defs>
  <g>
    <path class="st0" d="M177.62,201.64l-31.45,9.43-29.18,28.89c-10.01,9.35-24.16,13.72-37.86,13.26-13.71-.43-26.4-6.2-35.76-16.22h-.02c-9.35-10.01-14.27-23.07-13.83-36.77.46-13.7,6.23-26.41,16.24-35.76l16.52-15.46c.12,24.41,17.34,46.19,42.21,51.16,14.8,2.97,29.42-.62,40.8-8.75,4-2.43,7.77-5.3,11.27-8.59l37.91-35.5c13.56-12.67,21.35-29.85,21.96-48.39.62-18.54-6.03-36.2-18.7-49.75-12.67-13.54-29.87-21.35-48.39-21.96-18.55-.61-36.22,6.03-49.76,18.71l-49.98,50.35,33.39-7.87,28.87-28.87c10.02-9.36,23.17-14.67,36.87-14.23,2.89.1,5.72.42,8.48.98,10.42,2.09,19.9,7.34,27.31,15.27,9.37,9.99,14.26,23.06,13.81,36.76-.45,13.69-6.22,26.4-16.23,35.77l-14.82,13.85c-.32-24.22-17.47-45.79-42.19-50.72-15.31-3.06-30.36.88-41.9,9.57-4.23,2.52-8.2,5.52-11.88,8.95l-37.92,35.49c-13.54,12.67-21.35,29.87-21.97,48.4-.29,9.28,1.22,18.33,4.37,26.74,3.18,8.43,8,16.23,14.35,23.01,10.01,10.69,22.84,17.8,36.92,20.63,3.75.74,7.58,1.19,11.46,1.32,18.54.62,36.22-6.03,49.12-19.34l49.98-50.35ZM122.38,113.04c19.74,3.95,32.54,23.16,28.59,42.9-3.96,19.73-23.16,32.54-42.9,28.59-19.74-3.95-32.54-23.16-28.59-42.9,3.95-19.74,23.16-32.54,42.9-28.59Z"/>
    <circle class="st0" cx="115.95" cy="150.27" r="18.95"/>
  </g>
  <g>
    <g>
      <path class="st0" d="M265.81,74.07c4.94-9.53,12-16.94,21.18-22.23,9.18-5.29,19.99-7.93,32.42-7.93,10.69,0,20.25,2,28.68,6.01,8.42,4.01,15.28,9.68,20.57,17,5.29,7.32,8.8,15.86,10.55,25.63h-40.79c-1.86-4.07-4.51-7.23-7.93-9.5-3.43-2.27-7.35-3.4-11.77-3.4-6.51,0-11.65,2.44-15.43,7.32-3.78,4.88-5.66,11.45-5.66,19.7s1.89,14.82,5.66,19.7c3.78,4.88,8.92,7.32,15.43,7.32,4.41,0,8.34-1.13,11.77-3.4,3.43-2.26,6.07-5.43,7.93-9.5h40.79c-1.74,9.76-5.26,18.31-10.55,25.63-5.29,7.32-12.15,12.99-20.57,17-8.43,4.01-17.98,6.02-28.68,6.02-12.44,0-23.24-2.64-32.42-7.93-9.18-5.29-16.24-12.7-21.18-22.23-4.94-9.53-7.41-20.4-7.41-32.6s2.47-23.07,7.41-32.6Z"/>
      <path class="st0" d="M431.86,139.27h37.31v29.29h-76.01V45.13h38.7v94.14Z"/>
      <path class="st0" d="M520.07,45.13v123.42h-38.7V45.13h38.7Z"/>
      <path class="st0" d="M633.03,108.68c-3.6,6.34-8.92,11.36-15.95,15.08-7.03,3.72-15.54,5.58-25.54,5.58h-15.34v39.22h-38.7V45.13h54.04c15.11,0,26.7,3.84,34.78,11.51,8.08,7.67,12.12,17.95,12.12,30.86,0,7.79-1.8,14.85-5.4,21.18ZM599.21,87.5c0-7.55-4.01-11.33-12.03-11.33h-10.98v22.66h10.98c8.02,0,12.03-3.78,12.03-11.33Z"/>
      <path class="st0" d="M678.79,161.59c-9.71-5.46-17.41-13.02-23.1-22.66-5.7-9.65-8.54-20.51-8.54-32.6s2.85-22.95,8.54-32.6c5.69-9.65,13.39-17.17,23.1-22.58,9.7-5.4,20.37-8.11,31.99-8.11s22.26,2.7,31.9,8.11c9.65,5.4,17.29,12.93,22.92,22.58,5.64,9.65,8.46,20.51,8.46,32.6s-2.82,22.96-8.46,32.6c-5.64,9.65-13.31,17.2-23.01,22.66-9.71,5.46-20.31,8.19-31.82,8.19s-22.29-2.73-31.99-8.19ZM728.56,126.28c4.18-4.94,6.27-11.59,6.27-19.96s-2.09-15.19-6.27-20.13c-4.18-4.94-10.11-7.41-17.78-7.41s-13.77,2.47-17.96,7.41c-4.18,4.94-6.27,11.65-6.27,20.13s2.09,15.02,6.27,19.96c4.19,4.94,10.17,7.41,17.96,7.41s13.6-2.47,17.78-7.41Z"/>
      <path class="st0" d="M884.93,45.13v30.68h-32.77v92.74h-38.7v-92.74h-32.42v-30.68h103.9Z"/>
    </g>
    <g>
      <path class="st0" d="M309.79,186.67l-10.96,37.81h-5.53l-8.79-30.43-9.11,30.43-5.48.05-10.58-37.86h5.26l8.25,32.06,9.11-32.06h5.53l8.68,31.95,8.3-31.95h5.32Z"/>
      <path class="st0" d="M320.15,190.68v12.64h13.78v4.07h-13.78v13.02h15.4v4.07h-20.34v-37.86h20.34v4.07h-15.4Z"/>
      <path class="st0" d="M378.03,224.48l-15.57-17.25v17.25h-4.94v-37.81h4.94v17.52l15.62-17.52h6.24l-17.14,18.93,17.3,18.88h-6.46Z"/>
      <path class="st0" d="M419.74,224.48h-4.94l-19.85-30.11v30.11h-4.94v-37.86h4.94l19.85,30.05v-30.05h4.94v37.86Z"/>
      <path class="st0" d="M435.69,222.39c-2.89-1.64-5.18-3.94-6.86-6.89-1.68-2.95-2.52-6.26-2.52-9.95s.84-7.01,2.52-9.95c1.68-2.95,3.97-5.24,6.86-6.89,2.89-1.64,6.09-2.47,9.6-2.47s6.76.82,9.66,2.47c2.89,1.65,5.17,3.93,6.83,6.86,1.66,2.93,2.5,6.26,2.5,9.98s-.83,7.05-2.5,9.98c-1.66,2.93-3.94,5.22-6.83,6.86-2.89,1.65-6.11,2.47-9.66,2.47s-6.71-.82-9.6-2.47ZM452.42,218.73c2.12-1.23,3.78-2.98,4.99-5.26,1.21-2.28,1.82-4.92,1.82-7.92s-.61-5.69-1.82-7.95c-1.21-2.26-2.87-4-4.96-5.23-2.1-1.23-4.48-1.84-7.16-1.84s-5.06.62-7.16,1.84c-2.1,1.23-3.75,2.97-4.96,5.23-1.21,2.26-1.82,4.91-1.82,7.95s.61,5.64,1.82,7.92c1.21,2.28,2.88,4.03,4.99,5.26,2.12,1.23,4.49,1.85,7.13,1.85s5.02-.61,7.13-1.85Z"/>
      <path class="st0" d="M518.3,186.67l-10.96,37.81h-5.53l-8.79-30.43-9.11,30.43-5.48.05-10.58-37.86h5.26l8.25,32.06,9.11-32.06h5.53l8.68,31.95,8.3-31.95h5.32Z"/>
      <path class="st0" d="M560.56,216.07h-16.49l-3.04,8.41h-5.21l13.67-37.59h5.7l13.62,37.59h-5.21l-3.04-8.41ZM559.15,212.06l-6.83-19.09-6.83,19.09h13.67Z"/>
      <path class="st0" d="M597.47,206.69c1.14.9,2.04,2.03,2.71,3.36.67,1.34,1,2.77,1,4.29,0,1.92-.49,3.64-1.46,5.18-.98,1.54-2.4,2.75-4.26,3.64-1.86.89-4.06,1.33-6.59,1.33h-14.1v-37.81h13.56c2.57,0,4.75.42,6.56,1.27,1.81.85,3.16,2,4.07,3.44.9,1.45,1.36,3.07,1.36,4.88,0,2.24-.61,4.1-1.82,5.56-1.21,1.47-2.81,2.52-4.8,3.17,1.37.22,2.63.78,3.77,1.68ZM579.71,203h8.3c2.31,0,4.1-.54,5.37-1.63,1.27-1.09,1.9-2.59,1.9-4.5s-.63-3.42-1.9-4.5c-1.27-1.09-3.09-1.63-5.48-1.63h-8.19v12.26ZM594.19,218.67c1.37-1.16,2.06-2.77,2.06-4.83s-.72-3.75-2.17-4.96c-1.45-1.21-3.38-1.82-5.8-1.82h-8.57v13.34h8.73c2.46,0,4.38-.58,5.75-1.74Z"/>
      <path class="st0" d="M615.56,222.39c-2.89-1.64-5.18-3.94-6.86-6.89-1.68-2.95-2.52-6.26-2.52-9.95s.84-7.01,2.52-9.95c1.68-2.95,3.97-5.24,6.86-6.89,2.89-1.64,6.09-2.47,9.6-2.47s6.76.82,9.66,2.47c2.89,1.65,5.17,3.93,6.83,6.86,1.66,2.93,2.5,6.26,2.5,9.98s-.83,7.05-2.5,9.98c-1.66,2.93-3.94,5.22-6.83,6.86-2.89,1.65-6.11,2.47-9.66,2.47s-6.71-.82-9.6-2.47ZM632.3,218.73c2.12-1.23,3.78-2.98,4.99-5.26,1.21-2.28,1.82-4.92,1.82-7.92s-.61-5.69-1.82-7.95c-1.21-2.26-2.87-4-4.96-5.23-2.1-1.23-4.48-1.84-7.16-1.84s-5.06.62-7.16,1.84c-2.1,1.23-3.75,2.97-4.96,5.23-1.21,2.26-1.82,4.91-1.82,7.95s.61,5.64,1.82,7.92c1.21,2.28,2.88,4.03,4.99,5.26,2.12,1.23,4.49,1.85,7.13,1.85s5.02-.61,7.13-1.85Z"/>
      <path class="st0" d="M655.49,186.67v23.92c0,3.36.82,5.86,2.47,7.49,1.64,1.63,3.93,2.44,6.86,2.44s5.16-.81,6.81-2.44c1.64-1.63,2.47-4.12,2.47-7.49v-23.92h4.94v23.87c0,3.15-.63,5.8-1.9,7.95-1.27,2.15-2.98,3.75-5.13,4.8-2.15,1.05-4.57,1.57-7.24,1.57s-5.09-.52-7.24-1.57c-2.15-1.05-3.85-2.65-5.1-4.8-1.25-2.15-1.87-4.8-1.87-7.95v-23.87h4.94Z"/>
      <path class="st0" d="M710.54,186.67v4.01h-10.31v33.79h-4.94v-33.79h-10.36v-4.01h25.6Z"/>
      <path class="st0" d="M736.04,220.46h13.23v4.01h-18.17v-37.81h4.94v33.79Z"/>
      <path class="st0" d="M759.47,190.68v12.64h13.78v4.07h-13.78v13.02h15.4v4.07h-20.34v-37.86h20.34v4.07h-15.4Z"/>
      <path class="st0" d="M804.71,216.07h-16.49l-3.04,8.41h-5.21l13.67-37.59h5.7l13.62,37.59h-5.21l-3.04-8.41ZM803.3,212.06l-6.83-19.09-6.83,19.09h13.67Z"/>
      <path class="st0" d="M841.41,188.98c3.02,1.54,5.33,3.73,6.94,6.59,1.61,2.86,2.41,6.22,2.41,10.09s-.8,7.22-2.41,10.06c-1.61,2.84-3.92,5.01-6.94,6.51-3.02,1.5-6.59,2.25-10.71,2.25h-11.77v-37.81h11.77c4.12,0,7.69.77,10.71,2.31ZM841.87,216.53c2.57-2.59,3.85-6.21,3.85-10.88s-1.29-8.37-3.88-11.01-6.3-3.96-11.15-3.96h-6.83v29.73h6.83c4.88,0,8.61-1.29,11.17-3.88Z"/>
      <path class="st0" d="M862.56,223.53c-1.97-.89-3.52-2.12-4.64-3.69s-1.7-3.39-1.74-5.45h5.26c.18,1.77.91,3.26,2.2,4.47,1.28,1.21,3.15,1.82,5.61,1.82s4.2-.59,5.56-1.76c1.36-1.17,2.03-2.69,2.03-4.53,0-1.45-.4-2.62-1.19-3.53-.8-.9-1.79-1.59-2.98-2.06-1.19-.47-2.8-.98-4.83-1.52-2.49-.65-4.49-1.3-5.99-1.95-1.5-.65-2.79-1.67-3.85-3.06-1.07-1.39-1.6-3.26-1.6-5.61,0-2.06.52-3.89,1.57-5.48,1.05-1.59,2.52-2.82,4.42-3.69,1.9-.87,4.08-1.3,6.54-1.3,3.54,0,6.45.89,8.71,2.66,2.26,1.77,3.54,4.12,3.82,7.05h-5.42c-.18-1.45-.94-2.72-2.28-3.82-1.34-1.1-3.11-1.65-5.32-1.65-2.06,0-3.74.53-5.04,1.6-1.3,1.07-1.95,2.56-1.95,4.48,0,1.37.39,2.49,1.17,3.36.78.87,1.74,1.53,2.87,1.98,1.14.45,2.74.97,4.8,1.55,2.5.69,4.5,1.37,6.02,2.03s2.82,1.7,3.91,3.09c1.09,1.39,1.63,3.28,1.63,5.67,0,1.84-.49,3.58-1.46,5.21-.98,1.63-2.42,2.95-4.34,3.96-1.92,1.01-4.18,1.52-6.78,1.52s-4.73-.44-6.7-1.33Z"/>
    </g>
  </g>
</svg>