<?xml version="1.0" encoding="UTF-8"?>
<svg id="Layer_1" xmlns="http://www.w3.org/2000/svg" version="1.1" viewBox="0 0 512 175">
  <!-- Generator: Adobe Illustrator 29.3.1, SVG Export Plug-In . SVG Version: 2.1.0 Build 151)  -->
  <defs>
    <style>
      .st0 {
        fill: #fff;
      }
    </style>
  </defs>
  <g>
    <g>
      <path class="st0" d="M191.95,122.93c-5.03-4.78-7.54-11.29-7.54-19.56,0-.99.1-2.69.3-5.08l5.37-43.59c1.19-9.65,5.02-17.32,11.49-22.99,6.47-5.67,14.48-8.51,24.03-8.51,8.66,0,15.53,2.36,20.6,7.09,5.08,4.73,7.61,11.22,7.61,19.48,0,.9-.1,2.54-.3,4.93l-.15.75c-.1.7-.37,1.27-.82,1.72-.45.45-.97.67-1.57.67l-22.99.75c-1.49,0-2.14-.7-1.94-2.09l.45-3.73c.2-1.69-.05-3.03-.75-4.03-.7-.99-1.69-1.49-2.99-1.49-1.4,0-2.56.5-3.51,1.49-.95,1-1.52,2.34-1.72,4.03l-5.82,47.92c-.2,1.59.02,2.89.67,3.88.65,1,1.67,1.49,3.06,1.49s2.56-.47,3.51-1.42c.95-.94,1.52-2.26,1.72-3.96l.45-4.03c.1-.7.37-1.22.82-1.57.45-.35.97-.52,1.57-.52l22.84.75c.69,0,1.22.22,1.57.67.35.45.47,1.02.37,1.72l-.15.6c-1.19,9.65-5.05,17.37-11.57,23.14-6.52,5.77-14.55,8.66-24.11,8.66-8.66,0-15.5-2.39-20.53-7.17Z"/>
      <path class="st0" d="M250.62,128.3c-.35-.4-.47-.94-.37-1.64l12.24-100.02c.1-.7.37-1.24.82-1.64.45-.4.97-.6,1.57-.6h22.99c.6,0,1.07.2,1.42.6.35.4.47.95.37,1.64l-12.24,100.02c-.1.7-.35,1.25-.75,1.64-.4.4-.95.6-1.64.6h-22.84c-.7,0-1.22-.2-1.57-.6Z"/>
      <path class="st0" d="M283.61,128.3c-.35-.4-.47-.94-.37-1.64l8.96-73.15c.1-.7.37-1.24.82-1.64.45-.4.97-.6,1.57-.6h22.99c.6,0,1.07.2,1.42.6.35.4.47.95.37,1.64l-8.96,73.15c-.1.7-.35,1.25-.75,1.64-.4.4-.95.6-1.64.6h-22.84c-.7,0-1.22-.2-1.57-.6ZM297.72,42.69c-2.19-2.24-3.28-5.1-3.28-8.58,0-4.68,1.49-8.53,4.48-11.57,2.99-3.04,6.62-4.55,10.9-4.55,3.68,0,6.62,1.1,8.81,3.28,2.19,2.19,3.28,5.03,3.28,8.51,0,4.58-1.49,8.43-4.48,11.57s-6.67,4.7-11.05,4.7c-3.58,0-6.47-1.12-8.66-3.36Z"/>
      <path class="st0" d="M379.82,55c2.69,3.28,4.03,8.06,4.03,14.33,0,2.29-.15,4.73-.45,7.31l-3.29,26.87c-1.1,8.86-3.51,15.5-7.24,19.93-3.73,4.43-9.03,6.64-15.9,6.64-5.77,0-9.75-2.34-11.94-7.02-.2-.3-.4-.42-.6-.37-.2.05-.3.28-.3.67l-3.73,30.15c-.1.7-.37,1.24-.82,1.64-.45.4-.97.6-1.57.6h-22.99c-.6,0-1.07-.2-1.42-.6-.35-.4-.47-.95-.37-1.64l12.24-100.02c.1-.7.37-1.24.82-1.64.45-.4.97-.6,1.57-.6h22.99c.6,0,1.07.2,1.42.6.35.4.47.95.37,1.64l-.3,3.28v.15c0,.1.05.15.15.15.2,0,.75-.45,1.64-1.34,3.38-3.78,7.61-5.67,12.69-5.67,5.97,0,10.3,1.64,12.99,4.93ZM355.94,77.84c0-1.09-.22-1.99-.67-2.69-.45-.69-1.02-1.04-1.72-1.04-1,0-1.87.42-2.61,1.27-.75.85-1.22,2.02-1.42,3.51l-2.69,22.39c-.2,1.39-.05,2.54.45,3.43.5.9,1.24,1.34,2.24,1.34s1.82-.42,2.46-1.27c.65-.84,1.07-2.02,1.27-3.51l2.69-22.39v-1.05Z"/>
      <path class="st0" d="M392.29,124.27c-4.83-3.88-7.24-9.41-7.24-16.57,0-.8.1-2.19.3-4.18l3.28-26.87c.99-8.06,4.53-14.5,10.6-19.33,6.07-4.83,13.93-7.24,23.59-7.24,8.86,0,15.67,2.04,20.45,6.12,4.78,4.08,7.17,9.61,7.17,16.57,0,.8-.1,2.09-.3,3.88l-3.28,26.87c-1.1,8.46-4.55,15-10.37,19.63-5.82,4.63-13.66,6.94-23.51,6.94-8.96,0-15.85-1.94-20.68-5.82ZM418.48,104.71c.79-.9,1.29-2.04,1.49-3.43l2.69-22.39c.1-1.39-.1-2.54-.6-3.43-.5-.9-1.25-1.34-2.24-1.34-1.1,0-2.02.45-2.76,1.34-.75.9-1.22,2.04-1.42,3.43l-2.84,22.39c-.2,1.39,0,2.54.6,3.43.6.9,1.39,1.34,2.39,1.34s1.89-.45,2.69-1.34Z"/>
      <path class="st0" d="M495.66,70.08c-.4.4-.95.6-1.64.6h-6.27c-.5,0-.75.25-.75.75l-3.58,28.81c-.2,1.79.05,3.01.75,3.66.69.65,1.79.92,3.28.82h.3c.6,0,1.07.2,1.42.6.35.4.47.95.37,1.64l-2.39,19.7c-.1.7-.37,1.25-.82,1.64-.45.4-.97.6-1.57.6h-7.02c-7.27,0-12.74-.94-16.42-2.84-3.68-1.89-5.52-5.57-5.52-11.05,0-1.49.05-2.64.15-3.43l4.93-40.16c.2-.5,0-.75-.6-.75h-4.03c-.7,0-1.22-.2-1.57-.6-.35-.4-.47-.94-.37-1.64l1.79-14.93c.3-1.49,1.14-2.24,2.54-2.24h4.03c.39,0,.69-.25.9-.75l1.94-16.12c.1-.7.35-1.24.75-1.64s.95-.6,1.64-.6h21.8c.6,0,1.07.2,1.42.6.35.4.47.95.37,1.64l-1.94,16.12c0,.5.2.75.6.75h6.27c.69,0,1.22.2,1.57.6.35.4.47.95.37,1.64l-1.94,14.93c-.1.7-.35,1.25-.75,1.64Z"/>
    </g>
    <g>
      <path class="st0" d="M216.84,135.43l-9.26,17.46h-3.47l-1.75-12.8-6.99,12.8h-3.47l-2.3-17.46h3.22l1.72,13.27,7.16-13.27h3.02l1.72,13.4,7.16-13.4h3.22Z"/>
      <path class="st0" d="M228.45,147.15h-10.58c.05,2.12,1.27,3.27,3.84,3.27,1.52,0,2.92-.5,3.84-1.37l1.3,2.17c-1.4,1.25-3.42,1.85-5.46,1.85-4.02,0-6.56-2.32-6.56-5.86,0-4.52,3.22-7.78,7.68-7.78,3.69,0,6.14,2.2,6.14,5.84,0,.67-.08,1.32-.2,1.9ZM218.14,145.08h7.64c.03-2.05-1.35-3.17-3.42-3.17s-3.64,1.22-4.22,3.17Z"/>
      <path class="st0" d="M246.14,145.28l4.69,7.61h-3.62l-3.57-5.76-2.79,2.25-.7,3.52h-3.12l3.69-18.51h3.12l-2.2,11.05,7.31-5.86h4.24l-7.06,5.71Z"/>
      <path class="st0" d="M267.28,143.91c0,.5-.08,1.02-.18,1.6l-1.47,7.39h-3.12l1.45-7.31c.08-.37.1-.72.1-1.02,0-1.55-.85-2.42-2.67-2.42-2.27,0-3.84,1.25-4.37,3.84l-1.4,6.91h-3.12l2.64-13.32h2.97l-.3,1.47c1.22-1.1,2.82-1.62,4.59-1.62,2.94,0,4.87,1.57,4.87,4.49Z"/>
      <path class="st0" d="M269.85,147.2c0-4.47,3.29-7.78,7.91-7.78,3.94,0,6.49,2.3,6.49,5.84,0,4.47-3.32,7.81-7.93,7.81-3.92,0-6.46-2.35-6.46-5.86ZM281.1,145.41c0-2.07-1.27-3.34-3.52-3.34-2.64,0-4.59,2.05-4.59,4.99,0,2.07,1.27,3.34,3.52,3.34,2.64,0,4.59-2.05,4.59-4.99Z"/>
      <path class="st0" d="M309.05,139.57l-7.43,13.32h-3.07l-1.8-9.18-5.22,9.18h-3.02l-2.45-13.32h2.84l1.7,9.8,5.56-9.8h2.67l1.77,9.8,5.49-9.8h2.94Z"/>
    </g>
    <g>
      <path class="st0" d="M360.89,139.57l-2.64,13.32h-2.97l.27-1.37c-1.12,1-2.59,1.55-4.34,1.55-3.27,0-5.86-2.17-5.86-5.86,0-4.54,3.24-7.78,7.51-7.78,2.07,0,3.64.7,4.54,2.12l.37-1.97h3.12ZM356.6,145.41c0-2.07-1.27-3.34-3.52-3.34-2.64,0-4.59,2.05-4.59,4.99,0,2.07,1.27,3.34,3.52,3.34,2.64,0,4.59-2.05,4.59-4.99Z"/>
      <path class="st0" d="M377.89,145.26c0,4.54-3.24,7.81-7.48,7.81-2.17,0-3.82-.77-4.66-2.3l-.43,2.12h-2.97l3.69-18.51h3.12l-1.27,6.44c1.1-.9,2.5-1.4,4.14-1.4,3.27,0,5.86,2.15,5.86,5.84ZM374.75,145.41c0-2.07-1.27-3.34-3.52-3.34-2.64,0-4.59,2.05-4.59,4.99,0,2.07,1.27,3.34,3.52,3.34,2.64,0,4.59-2.05,4.59-4.99Z"/>
      <path class="st0" d="M379.59,147.2c0-4.47,3.29-7.78,7.91-7.78,3.94,0,6.49,2.3,6.49,5.84,0,4.47-3.32,7.81-7.93,7.81-3.92,0-6.46-2.35-6.46-5.86ZM390.84,145.41c0-2.07-1.27-3.34-3.52-3.34-2.64,0-4.59,2.05-4.59,4.99,0,2.07,1.27,3.34,3.52,3.34,2.64,0,4.59-2.05,4.59-4.99Z"/>
      <path class="st0" d="M411.13,139.57l-2.67,13.32h-2.97l.3-1.47c-1.22,1.12-2.8,1.65-4.52,1.65-2.87,0-4.82-1.6-4.82-4.52,0-.5.05-1.02.17-1.6l1.47-7.39h3.12l-1.47,7.31c-.08.37-.1.7-.1,1.02,0,1.55.87,2.42,2.64,2.42,2.22,0,3.79-1.25,4.32-3.84l1.4-6.91h3.12Z"/>
      <path class="st0" d="M416.95,148.43c-.03.2-.05.4-.05.57,0,.92.47,1.5,1.57,1.5.6,0,1.22-.17,1.75-.52l.55,2.3c-.95.6-2.12.8-3.22.8-2.27,0-3.82-1.32-3.82-3.57,0-.32.03-.67.1-1.05l1.27-6.29h-2.17l.5-2.5h2.17l.6-3.04h3.12l-.62,3.04h3.59l-.5,2.5h-3.59l-1.25,6.26Z"/>
      <path class="st0" d="M433.72,134.38h3.12l-3.69,18.51h-3.12l3.69-18.51Z"/>
      <path class="st0" d="M450.99,147.15h-10.58c.05,2.12,1.27,3.27,3.84,3.27,1.52,0,2.92-.5,3.84-1.37l1.3,2.17c-1.4,1.25-3.42,1.85-5.46,1.85-4.02,0-6.56-2.32-6.56-5.86,0-4.52,3.22-7.78,7.68-7.78,3.69,0,6.14,2.2,6.14,5.84,0,.67-.08,1.32-.2,1.9ZM440.68,145.08h7.64c.03-2.05-1.35-3.17-3.42-3.17s-3.64,1.22-4.22,3.17Z"/>
      <path class="st0" d="M468.35,139.57l-2.64,13.32h-2.97l.27-1.37c-1.12,1-2.59,1.55-4.34,1.55-3.27,0-5.86-2.17-5.86-5.86,0-4.54,3.24-7.78,7.51-7.78,2.07,0,3.64.7,4.54,2.12l.37-1.97h3.12ZM464.06,145.41c0-2.07-1.27-3.34-3.52-3.34-2.64,0-4.59,2.05-4.59,4.99,0,2.07,1.27,3.34,3.52,3.34,2.64,0,4.59-2.05,4.59-4.99Z"/>
      <path class="st0" d="M486.52,134.38l-3.69,18.51h-2.97l.27-1.37c-1.12.97-2.57,1.55-4.31,1.55-3.29,0-5.86-2.17-5.86-5.86,0-4.54,3.22-7.78,7.48-7.78,2.07,0,3.67.7,4.54,2.07l1.42-7.11h3.12ZM481.18,145.41c0-2.07-1.27-3.34-3.52-3.34-2.64,0-4.57,2.05-4.57,4.99,0,2.07,1.27,3.34,3.52,3.34,2.64,0,4.57-2.05,4.57-4.99Z"/>
      <path class="st0" d="M485.88,151.62l1.3-2.39c1.07.77,2.87,1.3,4.64,1.3,2.05,0,3.02-.6,3.02-1.6,0-2.2-7.21-.5-7.21-5.02,0-2.79,2.54-4.49,6.34-4.49,1.8,0,3.67.42,4.79,1.15l-1.15,2.39c-1.17-.75-2.64-1.02-3.94-1.02-2.02,0-2.99.7-2.99,1.62,0,2.3,7.21.57,7.21,5.01,0,2.92-2.64,4.49-6.39,4.49-2.32,0-4.52-.62-5.61-1.45Z"/>
    </g>
  </g>
  <g>
    <path class="st0" d="M161.14,129.86l-23.95-7.32-6.32-.16c2.27-3.99,3.56-8.6,3.56-13.48v-36.03c0-15.27-12.53-27.71-27.91-27.71h-62.23c4.55-6.31,11.99-10.41,20.41-10.41h65.77c13.89,0,25.15,11.19,25.15,24.98v44.52l5.53,25.61Z"/>
    <path class="st0" d="M128.9,72.87v36.03c0,4.99-1.66,9.6-4.46,13.31-4.09,5.4-10.61,8.91-17.93,8.91l-72.94,1.85-19.82,6.04,4.55-21.03.06-45.1c0-12.25,10.04-22.22,22.38-22.22h65.77c12.34,0,22.38,9.97,22.38,22.22Z"/>
  </g>
</svg>