<?xml version="1.0" standalone="no"?>
<!DOCTYPE svg PUBLIC "-//W3C//DTD SVG 20010904//EN"
 "http://www.w3.org/TR/2001/REC-SVG-20010904/DTD/svg10.dtd">
<svg version="1.0" xmlns="http://www.w3.org/2000/svg"
 width="512.000000pt" height="512.000000pt" viewBox="0 0 512.000000 512.000000"
 preserveAspectRatio="xMidYMid meet">
<metadata>
Created by potrace 1.14, written by Peter Selinger 2001-2017
</metadata>
<g transform="translate(0.000000,512.000000) scale(0.100000,-0.100000)"
fill="#000000" stroke="none">
<path d="M466 4939 c-114 -39 -199 -116 -254 -229 l-37 -75 0 -2075 0 -2075
29 -70 c49 -114 173 -221 292 -251 16 -4 939 -9 2052 -10 2158 -2 2070 -4
2177 46 99 48 199 176 223 285 5 22 8 950 7 2090 -1 1914 -2 2053 -18 2095
-46 117 -115 193 -227 248 l-75 37 -2055 2 c-2045 2 -2055 2 -2114 -18z"/>
</g>
</svg>
